<svg width="586" height="224" viewBox="0 0 586 224" fill="none" xmlns="http://www.w3.org/2000/svg">
<path fill-rule="evenodd" clip-rule="evenodd" d="M89.394 55.6216L0 46.1846C0 46.1846 59.407 94.0656 60.295 173.622C60.295 173.622 83.997 11.8326 128.957 99.9446C128.957 99.9446 129.327 61.3226 89.394 55.6216L128.957 63Z" fill="#F5C526"/>
<path fill-rule="evenodd" clip-rule="evenodd" d="M135.542 96.7793C162.195 81.1213 181.025 111.554 181.025 111.554C167.575 63.0303 135.542 96.7793 135.542 96.7793Z" fill="#F5C526"/>
<path fill-rule="evenodd" clip-rule="evenodd" d="M43.0786 0C43.0786 0 76.2536 119.961 53.2956 206.501C53.2956 206.501 157.129 19.924 181.026 111.555C181.026 111.555 191.39 81.121 158.921 62.941L43.0786 0Z" fill="#D55D2B"/>
<path fill-rule="evenodd" clip-rule="evenodd" d="M88.7098 107.712C105.478 81.1209 124.44 70.6289 124.44 70.6289L82.3398 50.7709" fill="#FFFFFE"/>
<path d="M549.565 211.819C548.236 214.278 546.87 216.289 545.468 217.854C544.065 219.492 542.514 220.76 540.816 221.653C539.118 222.547 537.162 223.143 534.947 223.441C532.806 223.813 530.258 224 527.306 224C525.977 224 524.611 223.925 523.208 223.776C521.805 223.628 520.403 223.516 519 223.441L521.658 210.255C522.691 210.255 523.762 210.366 524.869 210.59C525.903 210.814 526.936 210.926 527.97 210.926C529.815 210.926 531.292 210.627 532.399 210.032C533.507 209.51 534.393 208.84 535.058 208.02C535.796 207.275 536.387 206.456 536.829 205.561C537.346 204.667 537.863 203.886 538.38 203.215L528.191 146H544.36L549.343 187.347H549.565L569.388 146H586L549.565 211.819Z" fill="#000F45"/>
<path d="M507.633 168.934C507.633 167.463 507.483 166.03 507.185 164.633C506.96 163.162 506.475 161.838 505.727 160.661C504.979 159.485 503.895 158.566 502.474 157.904C501.053 157.169 499.183 156.801 496.865 156.801C494.622 156.801 492.64 157.133 490.92 157.794C489.2 158.456 487.704 159.338 486.433 160.441C485.162 161.544 484.079 162.83 483.181 164.301C482.358 165.772 481.648 167.316 481.05 168.934H507.633ZM479.367 178.86C479.292 179.228 479.254 179.558 479.254 179.853C479.254 180.146 479.254 180.441 479.254 180.736V182.168C479.254 185.478 480.302 188.162 482.396 190.22C484.489 192.279 487.704 193.308 492.042 193.308C493.612 193.308 494.996 193.088 496.192 192.646C497.464 192.132 498.548 191.507 499.445 190.772C500.417 190.036 501.24 189.19 501.913 188.235C502.66 187.279 503.333 186.36 503.931 185.478H519.86C518.589 188.713 517.093 191.544 515.373 193.971C513.653 196.397 511.597 198.455 509.204 200.147C506.81 201.764 504.006 202.978 500.791 203.786C497.65 204.595 493.987 205 489.798 205C485.91 205 482.358 204.484 479.143 203.456C476.002 202.426 473.31 200.882 471.067 198.824C468.823 196.691 467.066 194.08 465.794 190.993C464.598 187.904 464 184.301 464 180.183C464 175.625 464.748 171.25 466.244 167.058C467.739 162.794 469.833 159.044 472.525 155.808C475.292 152.5 478.656 149.89 482.62 147.978C486.583 145.993 491.033 145 495.968 145C500.006 145 503.67 145.515 506.96 146.544C510.325 147.573 513.167 149.154 515.485 151.287C517.878 153.346 519.71 155.956 520.981 159.118C522.327 162.206 523 165.809 523 169.926C523 172.72 522.702 175.699 522.103 178.86H479.367Z" fill="#000F45"/>
<path d="M387.239 163.199C387.165 160.772 386.42 158.897 385.004 157.574C383.663 156.176 381.427 155.478 378.297 155.478C375.466 155.478 373.118 155.919 371.255 156.801C369.467 157.61 368.572 159.044 368.572 161.103C368.572 162.353 369.095 163.418 370.137 164.301C371.255 165.184 373.156 166.03 375.838 166.839L383.774 169.375C385.936 170.037 387.91 170.809 389.698 171.691C391.562 172.573 393.163 173.677 394.504 175C395.92 176.25 397.001 177.757 397.746 179.521C398.566 181.287 398.976 183.346 398.976 185.698C398.976 189.227 398.156 192.242 396.517 194.742C394.952 197.169 392.865 199.154 390.258 200.698C387.649 202.243 384.705 203.345 381.427 204.007C378.148 204.669 374.832 205 371.479 205C368.647 205 365.778 204.705 362.872 204.117C359.966 203.529 357.32 202.573 354.936 201.25C352.626 199.853 350.726 198.052 349.236 195.845C347.745 193.566 347 190.735 347 187.353V185.036H361.642V186.912C361.642 188.235 361.978 189.375 362.649 190.331C363.319 191.286 364.177 192.095 365.219 192.757C366.337 193.345 367.567 193.824 368.908 194.191C370.324 194.485 371.703 194.633 373.044 194.633C374.236 194.633 375.429 194.522 376.621 194.301C377.813 194.08 378.894 193.713 379.862 193.199C380.831 192.609 381.613 191.911 382.209 191.103C382.805 190.22 383.104 189.117 383.104 187.793C383.104 185.808 382.581 184.411 381.539 183.602C380.495 182.794 379.116 182.096 377.403 181.507L365.219 177.647C363.207 176.985 361.418 176.287 359.854 175.551C358.364 174.816 357.06 173.896 355.942 172.794C354.899 171.691 354.079 170.367 353.483 168.824C352.961 167.279 352.701 165.368 352.701 163.088C352.701 159.706 353.483 156.875 355.047 154.595C356.687 152.316 358.773 150.478 361.308 149.081C363.841 147.61 366.598 146.581 369.579 145.993C372.634 145.331 375.54 145 378.297 145C381.427 145 384.445 145.257 387.351 145.772C390.258 146.287 392.791 147.243 394.952 148.64C397.188 149.963 398.938 151.801 400.205 154.155C401.472 156.507 402.068 159.522 401.994 163.199H387.239Z" fill="#000F45"/>
<path d="M334.893 203.553H319.648L321.441 195.537H321.218C316.061 201.845 309.298 205 300.927 205C289.642 205 284 199.879 284 189.638C284 189.043 284.037 188.301 284.112 187.411C284.262 186.446 284.412 185.481 284.561 184.517C284.785 183.552 284.972 182.661 285.122 181.845C285.345 180.954 285.532 180.249 285.682 179.73L292.856 146H308.774L301.712 179.73C301.562 180.175 301.413 180.731 301.264 181.399C301.189 181.993 301.077 182.625 300.927 183.293C300.852 183.96 300.778 184.628 300.704 185.296C300.704 185.89 300.704 186.372 300.704 186.743C300.704 188.45 301.488 189.86 303.057 190.974C304.701 192.086 306.458 192.643 308.326 192.643C310.718 192.643 312.81 192.198 314.603 191.307C316.471 190.343 318.041 189.118 319.311 187.633C320.656 186.15 321.741 184.442 322.563 182.513C323.459 180.583 324.132 178.616 324.58 176.613L331.082 146H347L334.893 203.553Z" fill="#000F45"/>
<path fill-rule="evenodd" clip-rule="evenodd" d="M276.317 129L257.273 146.414L257.303 146.266H247.404L245 156.713H255.159L248.824 187.175C248.605 188.201 248.423 189.191 248.277 190.144C248.132 191.024 248.059 191.83 248.059 192.564C247.986 194.909 248.35 196.816 249.151 198.282C250.025 199.749 251.154 200.921 252.538 201.801C253.994 202.607 255.597 203.158 257.344 203.45C259.166 203.818 260.986 204 262.806 204C264.482 204 266.121 203.927 267.722 203.781C269.325 203.707 270.927 203.597 272.529 203.45L275.151 191.463C273.33 191.683 271.473 191.794 269.58 191.794H267.722C267.14 191.72 266.594 191.537 266.084 191.244C265.574 190.95 265.137 190.547 264.772 190.035C264.482 189.447 264.336 188.642 264.336 187.615C264.336 187.394 264.372 187.065 264.445 186.624C264.518 186.112 264.628 185.562 264.772 184.976L270.563 156.713H281.596L284 146.266H272.857L276.353 129H276.317Z" fill="#000F45"/>
<path d="M228.894 203.553H213.648L215.442 195.537H215.217C210.06 201.845 203.297 205 194.927 205C183.642 205 178 199.879 178 189.638C178 189.043 178.037 188.301 178.112 187.411C178.261 186.446 178.411 185.481 178.56 184.517C178.785 183.552 178.971 182.661 179.121 181.845C179.345 180.954 179.531 180.249 179.681 179.73L186.855 146H202.774L195.712 179.73C195.562 180.175 195.413 180.731 195.263 181.399C195.188 181.993 195.076 182.625 194.927 183.293C194.852 183.96 194.778 184.628 194.703 185.296C194.703 185.89 194.703 186.372 194.703 186.743C194.703 188.45 195.488 189.86 197.057 190.974C198.701 192.086 200.457 192.643 202.325 192.643C204.717 192.643 206.81 192.198 208.603 191.307C210.472 190.343 212.041 189.118 213.312 187.633C214.657 186.15 215.74 184.442 216.562 182.513C217.459 180.583 218.132 178.616 218.58 176.613L225.082 146H241L228.894 203.553Z" fill="#000F45"/>
<path fill-rule="evenodd" clip-rule="evenodd" d="M157.929 124H140.244L94 203H112.124L120.493 188.107L128.884 172.461H128.82L145.736 141.039H145.956L149.8 172.461H129.145L151.38 185.383L151.771 188.421L153.864 203H171L157.929 124Z" fill="#000F45"/>
<path fill-rule="evenodd" clip-rule="evenodd" d="M414.88 141.687L434.479 124L425.38 166.771L425.603 166.994L448.424 145.547H468L445.048 168.348C443.248 170.135 442.767 172.86 443.845 175.155L456.926 203H439.475L429.966 177.329L421.688 184.33L417.772 203H402L414.88 141.687Z" fill="#000F45"/>
</svg>
